<svg width="410" height="317" viewBox="0 0 410 317" fill="none" xmlns="http://www.w3.org/2000/svg">
<rect x="2" y="2" width="406" height="313" rx="6" fill="#FFEECC" stroke="white" stroke-width="4"/>
<path d="M111.314 31.174H107.466C107.544 31.616 107.674 32.76 107.674 33.436V35.516H101.07C100.264 35.516 99.354 35.412 98.574 35.334V38.766C99.302 38.688 100.29 38.662 101.07 38.662H107.674V38.688C107.674 39.91 107.674 48.152 107.648 49.114C107.622 49.79 107.388 50.05 106.712 50.05C106.062 50.05 104.918 49.946 103.8 49.738L104.138 52.962C105.438 53.144 106.972 53.196 108.35 53.196C110.196 53.196 111.08 52.26 111.08 50.752V38.662H117.138C117.866 38.662 118.88 38.688 119.686 38.74V35.334C118.984 35.438 117.866 35.516 117.112 35.516H111.08V33.436C111.08 32.786 111.236 31.538 111.314 31.174ZM105.204 42.354L102.24 40.976C101.174 43.186 99.094 46.046 97.352 47.684L100.186 49.608C101.59 48.074 104.008 44.668 105.204 42.354ZM116.358 40.898L113.524 42.432C114.798 44.044 116.644 47.19 117.762 49.4L120.804 47.736C119.764 45.838 117.684 42.562 116.358 40.898ZM140.33 36.556L137.236 37.57C137.886 38.922 139.03 42.068 139.342 43.342L142.462 42.25C142.098 41.054 140.824 37.674 140.33 36.556ZM149.924 38.454L146.284 37.284C145.972 40.534 144.724 43.992 142.956 46.202C140.798 48.906 137.184 50.882 134.324 51.636L137.054 54.418C140.096 53.274 143.346 51.09 145.764 47.97C147.532 45.682 148.624 42.978 149.3 40.352C149.456 39.832 149.612 39.286 149.924 38.454ZM134.298 37.934L131.178 39.052C131.802 40.196 133.102 43.654 133.544 45.058L136.716 43.862C136.196 42.406 134.948 39.26 134.298 37.934ZM166.564 49.504C166.564 50.544 166.46 52.104 166.304 53.144H170.36C170.256 52.078 170.126 50.258 170.126 49.504V42.146C172.934 43.108 176.834 44.616 179.512 46.02L180.994 42.432C178.602 41.262 173.61 39.416 170.126 38.402V34.554C170.126 33.488 170.256 32.344 170.36 31.434H166.304C166.486 32.344 166.564 33.644 166.564 34.554V49.504ZM211.284 34.372L209.152 32.786C208.632 32.968 207.592 33.124 206.474 33.124H197.296C196.516 33.124 194.93 33.046 194.228 32.942V36.634C194.774 36.608 196.204 36.452 197.296 36.452H206.11C205.538 38.298 203.952 40.872 202.236 42.822C199.792 45.552 195.762 48.724 191.576 50.284L194.254 53.092C197.816 51.402 201.274 48.698 204.03 45.786C206.474 48.152 208.892 50.804 210.582 53.144L213.546 50.57C212.012 48.698 208.866 45.37 206.292 43.134C208.034 40.794 209.49 38.012 210.374 35.984C210.608 35.464 211.076 34.658 211.284 34.372ZM228.964 49.504C228.964 50.544 228.86 52.104 228.704 53.144H232.76C232.656 52.078 232.526 50.258 232.526 49.504V42.146C235.334 43.108 239.234 44.616 241.912 46.02L243.394 42.432C241.002 41.262 236.01 39.416 232.526 38.402V34.554C232.526 33.488 232.656 32.344 232.76 31.434H228.704C228.886 32.344 228.964 33.644 228.964 34.554V49.504ZM254.392 39.962V44.044C255.354 43.966 257.096 43.914 258.578 43.914H272.54C273.632 43.914 274.958 44.018 275.582 44.044V39.962C274.906 40.014 273.762 40.118 272.54 40.118H258.578C257.226 40.118 255.328 40.04 254.392 39.962ZM288.171 32.24L285.727 34.84C287.625 36.166 290.875 39 292.227 40.456L294.879 37.752C293.371 36.166 289.991 33.462 288.171 32.24ZM284.921 49.556L287.105 52.988C290.771 52.364 294.125 50.908 296.751 49.322C300.937 46.8 304.395 43.212 306.371 39.702L304.343 36.036C302.705 39.546 299.325 43.524 294.879 46.15C292.357 47.658 288.977 48.984 284.921 49.556Z" fill="#333333"/>
<line y1="75" x2="410" y2="75" stroke="white" stroke-width="4"/>
<path d="M91.24 155.14C93.16 155.14 94.42 156.37 94.42 158.98C94.42 161.71 93.04 163.09 91.39 163.09C89.53 163.09 88.03 161.53 87.61 157.48C88.63 155.8 90.04 155.14 91.24 155.14ZM91.48 166.42C95.26 166.42 98.44 163.54 98.44 158.98C98.44 154.24 95.8 152.02 92.08 152.02C90.64 152.02 88.72 152.92 87.52 154.42C87.7 148.84 89.8 146.92 92.35 146.92C93.64 146.92 94.99 147.64 95.77 148.54L98.11 145.9C96.76 144.52 94.81 143.38 92.08 143.38C87.61 143.38 83.5 146.92 83.5 155.2C83.5 163.03 87.25 166.42 91.48 166.42ZM108.186 172.39C111.816 171.19 113.856 168.52 113.856 165.01C113.856 162.28 112.716 160.66 110.676 160.66C109.116 160.66 107.826 161.68 107.826 163.27C107.826 164.95 109.146 165.88 110.586 165.88C110.676 165.88 110.766 165.88 110.856 165.88C110.886 167.56 109.596 169.12 107.256 169.99L108.186 172.39ZM130.272 166.42C134.802 166.42 137.772 162.46 137.772 154.81C137.772 147.16 134.802 143.38 130.272 143.38C125.742 143.38 122.742 147.13 122.742 154.81C122.742 162.46 125.742 166.42 130.272 166.42ZM130.272 162.97C128.352 162.97 126.912 161.05 126.912 154.81C126.912 148.6 128.352 146.8 130.272 146.8C132.192 146.8 133.602 148.6 133.602 154.81C133.602 161.05 132.192 162.97 130.272 162.97ZM153.938 166.42C158.468 166.42 161.438 162.46 161.438 154.81C161.438 147.16 158.468 143.38 153.938 143.38C149.408 143.38 146.408 147.13 146.408 154.81C146.408 162.46 149.408 166.42 153.938 166.42ZM153.938 162.97C152.018 162.97 150.578 161.05 150.578 154.81C150.578 148.6 152.018 146.8 153.938 146.8C155.858 146.8 157.268 148.6 157.268 154.81C157.268 161.05 155.858 162.97 153.938 162.97ZM177.604 166.42C182.134 166.42 185.104 162.46 185.104 154.81C185.104 147.16 182.134 143.38 177.604 143.38C173.074 143.38 170.074 147.13 170.074 154.81C170.074 162.46 173.074 166.42 177.604 166.42ZM177.604 162.97C175.684 162.97 174.244 161.05 174.244 154.81C174.244 148.6 175.684 146.8 177.604 146.8C179.524 146.8 180.934 148.6 180.934 154.81C180.934 161.05 179.524 162.97 177.604 162.97ZM209.1 153.58V146.02H216.6V153.58H209.1ZM198.48 146.02H205.56V153.58H198.48V146.02ZM220.2 142.48H194.88V168.58H198.48V157.12H216.6V164.38C216.6 164.89 216.39 165.07 215.82 165.1C215.22 165.1 213.27 165.13 211.56 165.01C212.07 165.94 212.67 167.59 212.85 168.58C215.52 168.58 217.32 168.52 218.52 167.92C219.78 167.35 220.2 166.36 220.2 164.41V142.48ZM228.84 171.46H231.78L239.22 141.82H236.31L228.84 171.46ZM250.971 156.88L254.421 151.36C255.051 150.16 255.651 148.93 256.191 147.73H256.311C256.251 149.05 256.161 151.06 256.161 152.35V156.88H250.971ZM256.161 166H260.271V160.24H262.881V156.88H260.271V143.77H254.961L246.681 157.24V160.24H256.161V166ZM277.997 166.42C282.107 166.42 285.767 163.57 285.767 158.62C285.767 153.79 282.647 151.57 278.927 151.57C277.907 151.57 277.157 151.78 276.257 152.2L276.677 147.49H284.747V143.77H272.867L272.267 154.57L274.277 155.89C275.567 155.05 276.287 154.72 277.607 154.72C279.857 154.72 281.357 156.16 281.357 158.74C281.357 161.35 279.737 162.82 277.427 162.82C275.357 162.82 273.797 161.8 272.537 160.57L270.497 163.39C272.147 165.04 274.487 166.42 277.997 166.42ZM310.483 142.33C312.133 145.48 314.383 148.78 316.753 151.54H300.553C302.923 148.84 305.023 145.54 306.493 142.09L302.653 140.98C300.853 145.54 297.553 149.68 293.803 152.2C294.673 152.83 296.203 154.27 296.863 155.08C297.673 154.45 298.483 153.73 299.263 152.92V155.02H304.333C303.733 159.4 302.173 163.33 295.393 165.52C296.263 166.33 297.313 167.8 297.763 168.82C305.533 165.91 307.483 160.78 308.233 155.02H314.143C313.873 161.29 313.543 163.96 312.943 164.59C312.613 164.95 312.283 165.01 311.743 165.01C310.993 165.01 309.433 164.98 307.783 164.86C308.413 165.88 308.893 167.38 308.953 168.46C310.723 168.52 312.463 168.52 313.483 168.37C314.653 168.22 315.463 167.92 316.213 166.96C317.263 165.7 317.623 162.16 317.953 153.1V152.89C318.613 153.58 319.243 154.24 319.873 154.81C320.563 153.79 321.943 152.35 322.903 151.6C319.633 149.08 315.883 144.73 313.993 140.92L310.483 142.33Z" fill="#333333"/>
<path d="M74.46 267H87.81V263.43H83.64V244.77H80.37C78.96 245.67 77.43 246.24 75.21 246.66V249.39H79.23V263.43H74.46V267ZM103.886 267.42C108.116 267.42 111.686 265.05 111.686 260.97C111.686 258.06 109.766 256.2 107.276 255.51V255.36C109.616 254.43 110.966 252.69 110.966 250.29C110.966 246.51 108.056 244.38 103.766 244.38C101.156 244.38 99.026 245.43 97.106 247.11L99.356 249.81C100.676 248.58 101.966 247.86 103.556 247.86C105.446 247.86 106.526 248.88 106.526 250.62C106.526 252.6 105.206 254.01 101.126 254.01V257.16C105.956 257.16 107.246 258.54 107.246 260.7C107.246 262.71 105.716 263.82 103.466 263.82C101.456 263.82 99.836 262.83 98.516 261.54L96.446 264.33C98.006 266.1 100.376 267.42 103.886 267.42ZM121.852 273.39C125.482 272.19 127.522 269.52 127.522 266.01C127.522 263.28 126.382 261.66 124.342 261.66C122.782 261.66 121.492 262.68 121.492 264.27C121.492 265.95 122.812 266.88 124.252 266.88C124.342 266.88 124.432 266.88 124.522 266.88C124.552 268.56 123.262 270.12 120.922 270.99L121.852 273.39ZM143.938 267.42C148.468 267.42 151.438 263.46 151.438 255.81C151.438 248.16 148.468 244.38 143.938 244.38C139.408 244.38 136.408 248.13 136.408 255.81C136.408 263.46 139.408 267.42 143.938 267.42ZM143.938 263.97C142.018 263.97 140.578 262.05 140.578 255.81C140.578 249.6 142.018 247.8 143.938 247.8C145.858 247.8 147.268 249.6 147.268 255.81C147.268 262.05 145.858 263.97 143.938 263.97ZM167.604 267.42C172.134 267.42 175.104 263.46 175.104 255.81C175.104 248.16 172.134 244.38 167.604 244.38C163.074 244.38 160.074 248.13 160.074 255.81C160.074 263.46 163.074 267.42 167.604 267.42ZM167.604 263.97C165.684 263.97 164.244 262.05 164.244 255.81C164.244 249.6 165.684 247.8 167.604 247.8C169.524 247.8 170.934 249.6 170.934 255.81C170.934 262.05 169.524 263.97 167.604 263.97ZM191.27 267.42C195.8 267.42 198.77 263.46 198.77 255.81C198.77 248.16 195.8 244.38 191.27 244.38C186.74 244.38 183.74 248.13 183.74 255.81C183.74 263.46 186.74 267.42 191.27 267.42ZM191.27 263.97C189.35 263.97 187.91 262.05 187.91 255.81C187.91 249.6 189.35 247.8 191.27 247.8C193.19 247.8 194.6 249.6 194.6 255.81C194.6 262.05 193.19 263.97 191.27 263.97ZM222.766 254.58V247.02H230.266V254.58H222.766ZM212.146 247.02H219.226V254.58H212.146V247.02ZM233.866 243.48H208.546V269.58H212.146V258.12H230.266V265.38C230.266 265.89 230.056 266.07 229.486 266.1C228.886 266.1 226.936 266.13 225.226 266.01C225.736 266.94 226.336 268.59 226.516 269.58C229.186 269.58 230.986 269.52 232.186 268.92C233.446 268.35 233.866 267.36 233.866 265.41V243.48ZM242.506 272.46H245.446L252.886 242.82H249.976L242.506 272.46ZM264.967 251.79C264.967 249.06 266.317 247.71 267.967 247.71C269.857 247.71 271.387 249.21 271.777 253.23C270.757 254.94 269.347 255.63 268.117 255.63C266.197 255.63 264.967 254.4 264.967 251.79ZM267.367 267.42C271.777 267.42 275.887 263.79 275.887 255.39C275.887 247.68 272.107 244.38 267.907 244.38C264.097 244.38 260.917 247.23 260.917 251.79C260.917 256.5 263.587 258.78 267.277 258.78C268.777 258.78 270.667 257.88 271.837 256.38C271.627 261.93 269.587 263.82 267.097 263.82C265.777 263.82 264.427 263.13 263.617 262.23L261.277 264.9C262.597 266.25 264.607 267.42 267.367 267.42ZM292.233 267.42C296.763 267.42 299.733 263.46 299.733 255.81C299.733 248.16 296.763 244.38 292.233 244.38C287.703 244.38 284.703 248.13 284.703 255.81C284.703 263.46 287.703 267.42 292.233 267.42ZM292.233 263.97C290.313 263.97 288.873 262.05 288.873 255.81C288.873 249.6 290.313 247.8 292.233 247.8C294.153 247.8 295.563 249.6 295.563 255.81C295.563 262.05 294.153 263.97 292.233 263.97ZM324.149 243.33C325.799 246.48 328.049 249.78 330.419 252.54H314.219C316.589 249.84 318.689 246.54 320.159 243.09L316.319 241.98C314.519 246.54 311.219 250.68 307.469 253.2C308.339 253.83 309.869 255.27 310.529 256.08C311.339 255.45 312.149 254.73 312.929 253.92V256.02H317.999C317.399 260.4 315.839 264.33 309.059 266.52C309.929 267.33 310.979 268.8 311.429 269.82C319.199 266.91 321.149 261.78 321.899 256.02H327.809C327.539 262.29 327.209 264.96 326.609 265.59C326.279 265.95 325.949 266.01 325.409 266.01C324.659 266.01 323.099 265.98 321.449 265.86C322.079 266.88 322.559 268.38 322.619 269.46C324.389 269.52 326.129 269.52 327.149 269.37C328.319 269.22 329.129 268.92 329.879 267.96C330.929 266.7 331.289 263.16 331.619 254.1V253.89C332.279 254.58 332.909 255.24 333.539 255.81C334.229 254.79 335.609 253.35 336.569 252.6C333.299 250.08 329.549 245.73 327.659 241.92L324.149 243.33Z" fill="#333333"/>
<path d="M121.704 121.196V113.584H129.47V110.922H121.704V104.63H118.888V121.196H111.012V123.836H131.01V121.196H121.704ZM152.878 104.696C152.372 106.258 151.426 108.304 150.634 109.624L153.032 110.46C153.846 109.228 154.836 107.358 155.716 105.598L152.878 104.696ZM144.1 109.558C143.704 108.238 142.67 106.258 141.702 104.806L139.304 105.752C140.228 107.292 141.196 109.316 141.504 110.614L144.1 109.558ZM157.344 116.422H148.72V113.804H156.222V111.208H148.72V104.344H145.97V111.208H138.842V113.804H145.97V116.422H137.5V119.084H145.97V124.87H148.72V119.084H157.344V116.422ZM169.818 115.08H177.452V115.476C177.188 115.696 176.924 115.938 176.638 116.158C174.306 116.29 171.974 116.422 169.818 116.532V115.08ZM177.452 108.7V109.976H169.818V108.7H177.452ZM177.452 113.166H169.818V111.846H177.452V113.166ZM181.28 110.944C180.928 111.494 180.554 112.044 180.158 112.55V106.456H174.68C175.01 105.884 175.362 105.268 175.67 104.63L172.458 104.322C172.304 104.938 172.04 105.708 171.754 106.456H167.2V116.664C165.99 116.708 164.912 116.752 163.966 116.796L164.318 119.392C166.694 119.238 169.708 118.996 172.876 118.732C170.126 120.294 167.002 121.504 163.658 122.34C164.164 122.934 165.044 124.1 165.418 124.738C169.84 123.418 173.954 121.504 177.452 118.886V121.702C177.452 122.076 177.298 122.208 176.858 122.208C176.418 122.23 174.856 122.252 173.492 122.164C173.866 122.912 174.306 124.144 174.416 124.914C176.528 124.936 177.936 124.87 178.904 124.43C179.872 124.012 180.158 123.22 180.158 121.724V116.598C181.522 115.256 182.754 113.804 183.81 112.176L181.28 110.944Z" fill="#333333"/>
<path d="M186.412 213.286C188.7 211.592 190.658 209.612 191.912 207.83C193.188 209.612 195.3 211.614 197.588 213.286H186.412ZM193.298 220.414H199.458V218.126H193.298V215.596H198.446V213.88C199.238 214.43 200.03 214.914 200.822 215.354C201.306 214.54 201.878 213.704 202.56 213C199.084 211.526 195.498 208.644 193.144 205.3H190.438C188.81 207.984 185.268 211.372 181.506 213.264C182.1 213.814 182.826 214.76 183.156 215.376C183.992 214.914 184.806 214.408 185.598 213.858V215.596H190.57V218.126H184.476V220.414H190.57V223.032H182.716V225.386H201.438V223.032H193.298V220.414ZM214.418 216.08H222.052V216.476C221.788 216.696 221.524 216.938 221.238 217.158C218.906 217.29 216.574 217.422 214.418 217.532V216.08ZM222.052 209.7V210.976H214.418V209.7H222.052ZM222.052 214.166H214.418V212.846H222.052V214.166ZM225.88 211.944C225.528 212.494 225.154 213.044 224.758 213.55V207.456H219.28C219.61 206.884 219.962 206.268 220.27 205.63L217.058 205.322C216.904 205.938 216.64 206.708 216.354 207.456H211.8V217.664C210.59 217.708 209.512 217.752 208.566 217.796L208.918 220.392C211.294 220.238 214.308 219.996 217.476 219.732C214.726 221.294 211.602 222.504 208.258 223.34C208.764 223.934 209.644 225.1 210.018 225.738C214.44 224.418 218.554 222.504 222.052 219.886V222.702C222.052 223.076 221.898 223.208 221.458 223.208C221.018 223.23 219.456 223.252 218.092 223.164C218.466 223.912 218.906 225.144 219.016 225.914C221.128 225.936 222.536 225.87 223.504 225.43C224.472 225.012 224.758 224.22 224.758 222.724V217.598C226.122 216.256 227.354 214.804 228.41 213.176L225.88 211.944Z" fill="#333333"/>
<path d="M189.744 123.232L191.216 122.608C189.872 120.272 189.264 117.584 189.264 114.944C189.264 112.336 189.872 109.632 191.216 107.296L189.744 106.672C188.24 109.136 187.36 111.76 187.36 114.944C187.36 118.16 188.24 120.752 189.744 123.232ZM204.255 113.968H196.959V112.992H204.255V113.968ZM196.959 118.992V117.904H204.255V118.992H196.959ZM204.255 116.448H196.959V115.408H204.255V116.448ZM207.935 110.336V108.576H204.351C204.767 108.08 205.215 107.488 205.631 106.88L203.439 106.4C203.167 107.056 202.671 107.92 202.207 108.576H198.543L199.247 108.208C198.927 107.68 198.287 106.896 197.695 106.32L195.999 107.088C196.383 107.536 196.831 108.08 197.151 108.576H193.487V110.336H199.567C199.487 110.672 199.407 111.008 199.295 111.344H195.071V121.408H196.959V120.656H204.255V121.408H206.239V111.344H201.407C201.551 111.024 201.711 110.688 201.855 110.336H207.935ZM213.407 121.104L215.119 119.632C214.319 118.64 212.767 117.056 211.631 116.128L209.967 117.568C211.071 118.528 212.431 119.904 213.407 121.104ZM237.919 110.88V111.776H230.127V110.88H237.919ZM239.775 113.168V109.488H228.255V112.512C228.255 114.704 228.095 117.856 226.303 120.048C226.767 120.256 227.599 120.784 227.935 121.104C229.647 118.944 230.063 115.632 230.127 113.168H239.775ZM232.351 117.744V117.024H238.063V117.744H232.351ZM238.063 115.152V115.856H232.351V115.152H238.063ZM239.951 113.808H230.495V121.408H232.351V119.04H238.063V119.632C238.063 119.84 237.983 119.904 237.743 119.904C237.535 119.92 236.639 119.92 235.903 119.888C236.143 120.32 236.367 120.944 236.447 121.408C237.647 121.408 238.527 121.392 239.151 121.168C239.759 120.912 239.951 120.512 239.951 119.648V113.808ZM227.247 107.152V108.816H240.703V107.152H227.247ZM246.687 121.104L248.399 119.632C247.599 118.64 246.047 117.056 244.911 116.128L243.247 117.568C244.351 118.528 245.711 119.904 246.687 121.104ZM264.159 112.64H266.063V106.448H264.159V107.648H260.495V109.12H264.159V110.128C262.639 110.352 261.183 110.56 260.111 110.672L260.367 112.24C261.471 112.048 262.815 111.84 264.159 111.584V112.64ZM263.999 117.408V116.528H270.527V117.408H263.999ZM270.527 114.384V115.216H263.999V114.384H270.527ZM272.479 113.008H262.063V121.392H263.999V118.72H270.527V119.456C270.527 119.68 270.431 119.744 270.143 119.76C269.919 119.76 268.879 119.76 268.111 119.712C268.351 120.192 268.623 120.88 268.703 121.376C269.999 121.376 270.927 121.376 271.583 121.104C272.255 120.848 272.479 120.4 272.479 119.472V113.008ZM270.383 110.928C269.791 110.928 269.679 110.848 269.679 110.352V109.584C271.103 109.28 272.703 108.864 273.983 108.4L272.751 107.04C271.951 107.392 270.815 107.792 269.679 108.112V106.448H267.743V110.352C267.743 112 268.207 112.528 270.111 112.528H272.351C273.775 112.528 274.287 112.032 274.479 110.352C273.967 110.24 273.199 109.984 272.815 109.712C272.751 110.736 272.639 110.928 272.159 110.928H270.383ZM284.863 114.528V111.088H288.479V114.528H284.863ZM279.247 114.528V111.088H282.847V114.528H279.247ZM284.863 109.216V106.448H282.847V109.216H277.327V117.28H279.247V116.4H282.847V121.392H284.863V116.4H288.479V117.2H290.479V109.216H284.863ZM294.815 123.232C296.335 120.752 297.215 118.16 297.215 114.944C297.215 111.76 296.335 109.136 294.815 106.672L293.359 107.296C294.703 109.632 295.311 112.336 295.311 114.944C295.311 117.584 294.703 120.272 293.359 122.608L294.815 123.232Z" fill="#333333"/>
<line x1="82" y1="177" x2="329" y2="177" stroke="#333333" stroke-width="2"/>
<line x1="71" y1="276" x2="339" y2="276" stroke="#333333" stroke-width="2"/>
</svg>
