<svg width="410" height="317" viewBox="0 0 410 317" fill="none" xmlns="http://www.w3.org/2000/svg">
<rect x="2" y="2" width="406" height="313" rx="6" fill="#FFEECC" stroke="white" stroke-width="4"/>
<path d="M185.804 123H195.594V120.382H192.536V106.698H190.138C189.104 107.358 187.982 107.776 186.354 108.084V110.086H189.302V120.382H185.804V123ZM214.137 116.466H210.265V112.66H214.137V116.466ZM207.801 110.372V118.732H216.777V110.372H207.801ZM205.689 121.284V107.776H218.911V121.284H205.689ZM202.961 105.092V124.892H205.689V123.726H218.911V124.892H221.771V105.092H202.961Z" fill="#333333"/>
<path d="M195.116 220.586V226.064H190.21V219.42H196.964V211.434H194.214V216.868H190.21V209.586H187.526V216.868H183.742V211.434H181.146V219.42H187.526V226.064H182.928V220.586H180.266V229.914H182.928V228.638H195.116V229.892H197.844V220.586H195.116ZM223.496 221.686C223.012 222.302 222.264 223.072 221.516 223.732C221.164 223.094 220.856 222.368 220.592 221.62H225.674V219.332H217.16V218.166H223.716V216.34H217.16V215.24H223.716V213.414H217.16V212.314H224.552V210.114H214.652V219.332H213.09V220.014H208.096C208.184 219.31 208.272 218.606 208.36 217.88H212.76V210.466H205.632V212.864H210.384V215.46H206.248C206.05 217.814 205.632 220.806 205.258 222.72L207.7 222.984L207.788 222.346H210.428C210.208 225.536 209.944 226.878 209.614 227.296C209.394 227.516 209.174 227.56 208.844 227.56C208.426 227.56 207.612 227.538 206.71 227.472C207.128 228.132 207.414 229.166 207.458 229.914C208.492 229.936 209.526 229.936 210.098 229.848C210.802 229.76 211.33 229.54 211.814 228.99C212.452 228.22 212.782 226.086 213.09 221.004V221.62H214.718V226.922L212.98 227.12L213.376 229.562C215.356 229.276 217.886 228.924 220.284 228.528L220.174 226.262C219.184 226.394 218.194 226.526 217.226 226.636V221.62H218.326C219.338 225.514 221.076 228.462 224.332 229.936C224.684 229.232 225.454 228.176 226.026 227.648C224.618 227.142 223.496 226.328 222.594 225.294C223.54 224.612 224.64 223.732 225.652 222.852L223.496 221.686Z" fill="#333333"/>
<path d="M150.176 163.364C153.738 163.364 156.91 160.894 156.91 156.604C156.91 152.418 154.206 150.494 150.982 150.494C150.098 150.494 149.448 150.676 148.668 151.04L149.032 146.958H156.026V143.734H145.73L145.21 153.094L146.952 154.238C148.07 153.51 148.694 153.224 149.838 153.224C151.788 153.224 153.088 154.472 153.088 156.708C153.088 158.97 151.684 160.244 149.682 160.244C147.888 160.244 146.536 159.36 145.444 158.294L143.676 160.738C145.106 162.168 147.134 163.364 150.176 163.364ZM165.695 168.538C168.841 167.498 170.609 165.184 170.609 162.142C170.609 159.776 169.621 158.372 167.853 158.372C166.501 158.372 165.383 159.256 165.383 160.634C165.383 162.09 166.527 162.896 167.775 162.896C167.853 162.896 167.931 162.896 168.009 162.896C168.035 164.352 166.917 165.704 164.889 166.458L165.695 168.538ZM184.836 163.364C188.762 163.364 191.336 159.932 191.336 153.302C191.336 146.672 188.762 143.396 184.836 143.396C180.91 143.396 178.31 146.646 178.31 153.302C178.31 159.932 180.91 163.364 184.836 163.364ZM184.836 160.374C183.172 160.374 181.924 158.71 181.924 153.302C181.924 147.92 183.172 146.36 184.836 146.36C186.5 146.36 187.722 147.92 187.722 153.302C187.722 158.71 186.5 160.374 184.836 160.374ZM205.346 163.364C209.272 163.364 211.846 159.932 211.846 153.302C211.846 146.672 209.272 143.396 205.346 143.396C201.42 143.396 198.82 146.646 198.82 153.302C198.82 159.932 201.42 163.364 205.346 163.364ZM205.346 160.374C203.682 160.374 202.434 158.71 202.434 153.302C202.434 147.92 203.682 146.36 205.346 146.36C207.01 146.36 208.232 147.92 208.232 153.302C208.232 158.71 207.01 160.374 205.346 160.374ZM225.857 163.364C229.783 163.364 232.357 159.932 232.357 153.302C232.357 146.672 229.783 143.396 225.857 143.396C221.931 143.396 219.331 146.646 219.331 153.302C219.331 159.932 221.931 163.364 225.857 163.364ZM225.857 160.374C224.193 160.374 222.945 158.71 222.945 153.302C222.945 147.92 224.193 146.36 225.857 146.36C227.521 146.36 228.743 147.92 228.743 153.302C228.743 158.71 227.521 160.374 225.857 160.374ZM253.153 152.236V145.684H259.653V152.236H253.153ZM243.949 145.684H250.085V152.236H243.949V145.684ZM262.773 142.616H240.829V165.236H243.949V155.304H259.653V161.596C259.653 162.038 259.471 162.194 258.977 162.22C258.457 162.22 256.767 162.246 255.285 162.142C255.727 162.948 256.247 164.378 256.403 165.236C258.717 165.236 260.277 165.184 261.317 164.664C262.409 164.17 262.773 163.312 262.773 161.622V142.616Z" fill="#333333"/>
<path d="M151.008 259.588C152.672 259.588 153.764 260.654 153.764 262.916C153.764 265.282 152.568 266.478 151.138 266.478C149.526 266.478 148.226 265.126 147.862 261.616C148.746 260.16 149.968 259.588 151.008 259.588ZM151.216 269.364C154.492 269.364 157.248 266.868 157.248 262.916C157.248 258.808 154.96 256.884 151.736 256.884C150.488 256.884 148.824 257.664 147.784 258.964C147.94 254.128 149.76 252.464 151.97 252.464C153.088 252.464 154.258 253.088 154.934 253.868L156.962 251.58C155.792 250.384 154.102 249.396 151.736 249.396C147.862 249.396 144.3 252.464 144.3 259.64C144.3 266.426 147.55 269.364 151.216 269.364ZM165.695 274.538C168.841 273.498 170.609 271.184 170.609 268.142C170.609 265.776 169.621 264.372 167.853 264.372C166.501 264.372 165.383 265.256 165.383 266.634C165.383 268.09 166.527 268.896 167.775 268.896C167.853 268.896 167.931 268.896 168.009 268.896C168.035 270.352 166.917 271.704 164.889 272.458L165.695 274.538ZM184.836 269.364C188.762 269.364 191.336 265.932 191.336 259.302C191.336 252.672 188.762 249.396 184.836 249.396C180.91 249.396 178.31 252.646 178.31 259.302C178.31 265.932 180.91 269.364 184.836 269.364ZM184.836 266.374C183.172 266.374 181.924 264.71 181.924 259.302C181.924 253.92 183.172 252.36 184.836 252.36C186.5 252.36 187.722 253.92 187.722 259.302C187.722 264.71 186.5 266.374 184.836 266.374ZM205.346 269.364C209.272 269.364 211.846 265.932 211.846 259.302C211.846 252.672 209.272 249.396 205.346 249.396C201.42 249.396 198.82 252.646 198.82 259.302C198.82 265.932 201.42 269.364 205.346 269.364ZM205.346 266.374C203.682 266.374 202.434 264.71 202.434 259.302C202.434 253.92 203.682 252.36 205.346 252.36C207.01 252.36 208.232 253.92 208.232 259.302C208.232 264.71 207.01 266.374 205.346 266.374ZM225.857 269.364C229.783 269.364 232.357 265.932 232.357 259.302C232.357 252.672 229.783 249.396 225.857 249.396C221.931 249.396 219.331 252.646 219.331 259.302C219.331 265.932 221.931 269.364 225.857 269.364ZM225.857 266.374C224.193 266.374 222.945 264.71 222.945 259.302C222.945 253.92 224.193 252.36 225.857 252.36C227.521 252.36 228.743 253.92 228.743 259.302C228.743 264.71 227.521 266.374 225.857 266.374ZM253.153 258.236V251.684H259.653V258.236H253.153ZM243.949 251.684H250.085V258.236H243.949V251.684ZM262.773 248.616H240.829V271.236H243.949V261.304H259.653V267.596C259.653 268.038 259.471 268.194 258.977 268.22C258.457 268.22 256.767 268.246 255.285 268.142C255.727 268.948 256.247 270.378 256.403 271.236C258.717 271.236 260.277 271.184 261.317 270.664C262.409 270.17 262.773 269.312 262.773 267.622V248.616Z" fill="#333333"/>
<path d="M65.832 31.148H62.01C62.114 31.772 62.192 32.968 62.192 33.54C62.192 34.32 62.166 35.074 62.14 35.802H58.422C57.434 35.802 56.082 35.724 54.99 35.62V39.026C56.108 38.922 57.538 38.922 58.422 38.922H61.854C61.282 42.874 59.982 45.786 57.564 48.178C56.524 49.244 55.224 50.128 54.158 50.726L57.174 53.17C61.828 49.868 64.298 45.786 65.26 38.922H71.11C71.11 41.73 70.772 46.93 70.018 48.568C69.732 49.192 69.368 49.478 68.536 49.478C67.522 49.478 66.17 49.348 64.896 49.114L65.312 52.598C66.56 52.702 68.12 52.806 69.602 52.806C71.396 52.806 72.384 52.13 72.956 50.804C74.074 48.152 74.386 40.898 74.49 38.09C74.49 37.804 74.594 37.128 74.672 36.712L72.41 35.62C71.786 35.724 71.11 35.802 70.46 35.802H65.572C65.624 35.048 65.65 34.268 65.676 33.462C65.702 32.838 65.754 31.746 65.832 31.148ZM84.812 41.886L86.45 45.162C89.648 44.226 92.95 42.822 95.628 41.418V49.738C95.628 50.882 95.55 52.52 95.446 53.144H99.554C99.372 52.494 99.32 50.882 99.32 49.738V39.234C101.842 37.57 104.338 35.542 106.314 33.592L103.506 30.914C101.816 32.968 98.852 35.568 96.174 37.232C93.288 39 89.466 40.69 84.812 41.886ZM117.676 33.566C117.728 34.294 117.728 35.36 117.728 36.088V48.802C117.728 50.05 117.65 52.312 117.65 52.442H121.238C121.238 52.364 121.238 51.766 121.212 51.038H133.744C133.744 51.792 133.718 52.39 133.718 52.442H137.306C137.306 52.338 137.254 49.842 137.254 48.828V36.088C137.254 35.308 137.254 34.346 137.306 33.566C136.37 33.618 135.382 33.618 134.732 33.618H120.432C119.73 33.618 118.742 33.592 117.676 33.566ZM121.212 36.92H133.77V47.71H121.212V36.92ZM166.504 32.942C166.504 32.11 167.18 31.434 168.012 31.434C168.818 31.434 169.494 32.11 169.494 32.942C169.494 33.748 168.818 34.424 168.012 34.424C167.18 34.424 166.504 33.748 166.504 32.942ZM164.892 32.942C164.892 33.124 164.918 33.28 164.944 33.436C164.398 33.514 163.826 33.54 163.462 33.54H151.424C150.566 33.54 149.084 33.436 148.33 33.332V36.998C148.98 36.946 150.228 36.894 151.424 36.894H163.514C163.176 39.13 162.188 42.068 160.472 44.226C158.366 46.878 155.428 49.14 150.28 50.336L153.114 53.456C157.742 51.948 161.226 49.374 163.566 46.254C165.75 43.368 166.868 39.338 167.466 36.79C167.544 36.556 167.596 36.296 167.674 36.01C167.778 36.036 167.908 36.036 168.012 36.036C169.702 36.036 171.106 34.632 171.106 32.942C171.106 31.226 169.702 29.822 168.012 29.822C166.296 29.822 164.892 31.226 164.892 32.942ZM182.598 32.058V35.412C183.352 35.36 184.47 35.334 185.302 35.334H195.26C196.196 35.334 197.418 35.36 198.12 35.412V32.058C197.392 32.162 196.118 32.188 195.312 32.188H185.302C184.418 32.188 183.326 32.162 182.598 32.058ZM200.304 39.598L197.99 38.168C197.626 38.324 196.924 38.428 196.092 38.428H183.222C182.416 38.428 181.298 38.35 180.206 38.272V41.652C181.298 41.548 182.598 41.522 183.222 41.522H195.78C195.312 42.978 194.506 44.59 193.102 46.02C191.126 48.048 188.006 49.764 184.106 50.57L186.68 53.508C190.008 52.572 193.336 50.804 195.962 47.892C197.912 45.734 199.03 43.212 199.81 40.69C199.914 40.404 200.122 39.936 200.304 39.598ZM222.898 31.72L219.102 30.472C218.868 31.356 218.322 32.552 217.932 33.202C216.632 35.438 214.37 38.792 209.82 41.574L212.732 43.732C215.28 41.99 217.542 39.702 219.284 37.44H226.59C226.174 39.39 224.666 42.51 222.898 44.538C220.636 47.112 217.75 49.374 212.42 50.96L215.488 53.716C220.376 51.792 223.522 49.4 225.992 46.384C228.332 43.472 229.814 40.014 230.516 37.7C230.724 37.05 231.088 36.322 231.374 35.828L228.722 34.19C228.124 34.372 227.266 34.502 226.46 34.502H221.234C221.26 34.45 221.286 34.424 221.312 34.372C221.624 33.8 222.3 32.63 222.898 31.72ZM244.426 32.058V35.412C245.232 35.36 246.324 35.308 247.234 35.308H257.66C258.57 35.308 259.584 35.36 260.468 35.412V32.058C259.584 32.188 258.544 32.24 257.66 32.24H247.208C246.35 32.24 245.284 32.188 244.426 32.058ZM241.41 38.714V42.12C242.138 42.068 243.126 42.016 243.906 42.016H251.056C250.952 44.2 250.51 46.15 249.444 47.762C248.404 49.27 246.584 50.778 244.738 51.48L247.78 53.69C250.094 52.52 252.096 50.492 253.006 48.698C253.942 46.878 254.514 44.694 254.67 42.016H260.936C261.664 42.016 262.652 42.042 263.302 42.094V38.714C262.626 38.818 261.482 38.87 260.936 38.87H243.906C243.1 38.87 242.19 38.792 241.41 38.714ZM271.633 44.59L273.167 47.658C275.429 46.956 278.341 45.76 280.629 44.616V51.48C280.629 52.39 280.551 53.768 280.499 54.288H284.347C284.191 53.768 284.165 52.39 284.165 51.48V42.562C286.479 41.028 288.767 39.182 289.989 37.83L287.415 35.308C286.089 36.998 283.463 39.338 280.941 40.872C278.887 42.12 275.013 43.862 271.633 44.59ZM313.181 36.556L310.087 37.57C310.737 38.922 311.881 42.068 312.193 43.342L315.313 42.25C314.949 41.054 313.675 37.674 313.181 36.556ZM322.775 38.454L319.135 37.284C318.823 40.534 317.575 43.992 315.807 46.202C313.649 48.906 310.035 50.882 307.175 51.636L309.905 54.418C312.947 53.274 316.197 51.09 318.615 47.97C320.383 45.682 321.475 42.978 322.151 40.352C322.307 39.832 322.463 39.286 322.775 38.454ZM307.149 37.934L304.029 39.052C304.653 40.196 305.953 43.654 306.395 45.058L309.567 43.862C309.047 42.406 307.799 39.26 307.149 37.934ZM346.149 31.72L342.353 30.472C342.119 31.356 341.573 32.552 341.183 33.202C339.883 35.438 337.621 38.792 333.071 41.574L335.983 43.732C338.531 41.99 340.793 39.702 342.535 37.44H349.841C349.425 39.39 347.917 42.51 346.149 44.538C343.887 47.112 341.001 49.374 335.671 50.96L338.739 53.716C343.627 51.792 346.773 49.4 349.243 46.384C351.583 43.472 353.065 40.014 353.767 37.7C353.975 37.05 354.339 36.322 354.625 35.828L351.973 34.19C351.375 34.372 350.517 34.502 349.711 34.502H344.485C344.511 34.45 344.537 34.424 344.563 34.372C344.875 33.8 345.551 32.63 346.149 31.72Z" fill="#333333"/>
<line y1="75" x2="410" y2="75" stroke="white" stroke-width="4"/>
<line x1="143" y1="172" x2="266" y2="172" stroke="#333333" stroke-width="2"/>
<line x1="143" y1="276" x2="266" y2="276" stroke="#333333" stroke-width="2"/>
</svg>
