<svg width="802" height="126" viewBox="0 0 802 126" fill="none" xmlns="http://www.w3.org/2000/svg">
<rect x="2.5" y="2.5" width="797" height="121" rx="5.5" fill="#FFEECC" stroke="white" stroke-width="5"/>
<line y1="55" x2="802" y2="55" stroke="white" stroke-width="4"/>
<line x1="219.5" x2="219.5" y2="123" stroke="white" stroke-width="5"/>
<line x1="297.5" x2="297.5" y2="123" stroke="white" stroke-width="5"/>
<line x1="375.5" x2="375.5" y2="123" stroke="white" stroke-width="5"/>
<line x1="453.5" x2="453.5" y2="123" stroke="white" stroke-width="5"/>
<line x1="531.5" x2="531.5" y2="123" stroke="white" stroke-width="5"/>
<line x1="605.5" x2="605.5" y2="123" stroke="white" stroke-width="5"/>
<line x1="679.5" x2="679.5" y2="123" stroke="white" stroke-width="5"/>
<path d="M65.294 19.048H58.826V21.028H65.294V19.048ZM70.486 18.454C69.606 20.258 67.89 22.414 65.998 23.844V21.996H57.726V24.064H65.69C65.47 24.24 65.228 24.394 64.986 24.526C65.426 25.076 66.02 26.066 66.284 26.726C68.572 25.296 70.662 22.898 71.762 20.918C72.95 22.898 75.15 25.23 77.24 26.55C77.592 25.78 78.142 24.812 78.626 24.174C76.47 23.096 74.292 20.786 72.884 18.454H70.486ZM73.698 27.342C72.29 29.256 69.518 30.994 67.032 31.962C67.648 32.446 68.33 33.216 68.704 33.766C71.432 32.512 74.182 30.62 75.986 28.332L73.698 27.342ZM71.718 24.218C70.684 25.648 68.682 27.122 66.966 27.98C67.538 28.398 68.242 29.08 68.638 29.564C70.596 28.508 72.62 26.924 73.984 25.12L71.718 24.218ZM65.36 25.054H58.76V27.056H65.36V25.054ZM58.76 30.026H65.36V28.068H58.76V30.026ZM63.16 33.172V35.702H60.894V33.172H63.16ZM65.382 31.104H58.694V38.606H60.894V37.748H65.382V31.104ZM75.436 30.84C73.544 33.7 69.914 35.702 65.954 36.714C66.592 37.352 67.252 38.276 67.582 38.958C71.828 37.572 75.546 35.284 77.79 31.852L75.436 30.84ZM89.56 33.634C88.482 34.866 86.458 35.966 84.5 36.626C85.006 37.066 85.864 38.012 86.26 38.496C88.262 37.594 90.55 36.098 91.892 34.47L89.56 33.634ZM103.838 36.736C102.562 35.79 100.142 34.426 98.382 33.59L96.622 35.152C98.426 36.076 100.824 37.528 101.968 38.496L103.838 36.736ZM87.492 26.792C87.734 26.638 87.954 26.462 88.152 26.308C88.746 26.704 89.384 27.21 89.824 27.628C89.604 27.848 89.384 28.046 89.142 28.222C88.746 27.782 88.108 27.232 87.492 26.792ZM91.87 25.076C91.606 25.538 91.298 25.978 90.968 26.396C90.528 26 89.912 25.56 89.362 25.23L89.516 25.076H91.87ZM92.222 28.156C93.146 27.1 93.938 25.868 94.488 24.482C95.148 25.868 95.962 27.1 96.974 28.156H92.222ZM99.878 25.384C99.57 25.89 99.218 26.374 98.822 26.836C98.338 26.396 97.876 25.912 97.48 25.384H99.878ZM98.184 30.224V29.278C99.57 30.378 101.242 31.214 103.244 31.764C103.552 31.148 104.212 30.202 104.718 29.718C103.112 29.366 101.726 28.794 100.516 28.068C101.506 26.946 102.452 25.56 103.112 24.24L102.21 23.668H103.86V19.818H95.698V18.388H93.08V19.818H84.918V23.668H87.272V21.93H101.396V23.382L101.198 23.426H97.018V24.746C96.512 23.976 96.072 23.118 95.742 22.216L93.762 22.722C93.894 23.118 94.048 23.492 94.202 23.844L93.234 23.382L92.838 23.492H90.792C90.99 23.206 91.166 22.92 91.342 22.612L89.186 22.238C88.35 23.756 86.678 25.318 84.104 26.44C84.566 26.77 85.16 27.474 85.446 27.98C85.622 27.892 85.82 27.804 85.974 27.716C86.568 28.178 87.206 28.794 87.624 29.278C86.524 29.938 85.336 30.466 84.104 30.818C84.544 31.258 85.072 32.072 85.336 32.622C85.842 32.446 86.348 32.248 86.854 32.028V33.59H93.168V36.472C93.168 36.714 93.08 36.78 92.772 36.802C92.464 36.802 91.342 36.802 90.44 36.758C90.726 37.396 91.056 38.232 91.144 38.914C92.684 38.914 93.784 38.914 94.642 38.606C95.5 38.254 95.698 37.704 95.698 36.56V33.59H101.902V31.456H87.998C89.01 30.928 89.956 30.29 90.814 29.542V30.224H98.184ZM115.674 22.04V25.912H113.65V22.04H115.674ZM113.65 32.336V28.2H115.674V32.336H113.65ZM118.116 19.708H111.23V36.604H113.65V34.668H118.116V19.708ZM119.414 32.82C120.404 33.942 121.526 35.504 121.922 36.516L124.166 35.218C123.704 34.14 122.516 32.688 121.504 31.61L119.414 32.82ZM131.052 27.188V24.9H126.036V22.964H130.436V20.676H126.036V18.366H123.462V20.676H119.238V22.964H123.462V24.9H118.49V27.188H126.256V29.08H118.534V31.346H126.256V36.076C126.256 36.384 126.146 36.472 125.794 36.472C125.464 36.472 124.232 36.472 123.176 36.428C123.528 37.132 123.924 38.166 124.012 38.892C125.64 38.892 126.828 38.826 127.686 38.452C128.544 38.056 128.786 37.396 128.786 36.142V31.346H130.898V29.08H128.786V27.188H131.052ZM143.966 21.094V22.26H140.578V21.094H143.966ZM140.578 25.274V24.02H143.966V25.274H140.578ZM146.408 27.144V19.202H137.982V38.914H140.578V27.144H146.408ZM150.412 25.318V24.02H153.91V25.318H150.412ZM153.91 21.094V22.26H150.412V21.094H153.91ZM145.33 34.954V33.59H148.96V34.954H145.33ZM148.96 31.72H145.33V30.4H148.96V31.72ZM156.55 19.202H147.926V27.188H153.91V35.79C153.91 36.142 153.778 36.274 153.382 36.274C153.096 36.296 152.282 36.296 151.424 36.274V28.486L144.032 28.464V28.486H142.954V37.99H145.33V36.868H150.786C151.05 37.55 151.292 38.364 151.358 38.914C153.25 38.914 154.526 38.848 155.384 38.408C156.264 37.99 156.55 37.22 156.55 35.812V19.202Z" fill="#333333"/>
<path d="M253.71 29.806C253.798 28.882 253.842 27.958 253.864 27.122H262.686V29.806H253.71ZM262.686 21.952V24.636H253.864V21.952H262.686ZM265.458 19.4H251.158V26.638C251.158 29.982 250.85 34.184 247.528 37.022C248.1 37.396 249.156 38.364 249.552 38.914C251.598 37.198 252.698 34.8 253.27 32.336H262.686V35.526C262.686 35.988 262.51 36.164 261.982 36.164C261.498 36.164 259.65 36.186 258.11 36.098C258.528 36.824 259.056 38.078 259.21 38.848C261.476 38.848 263.016 38.804 264.072 38.342C265.084 37.902 265.458 37.154 265.458 35.57V19.4Z" fill="#333333"/>
<path d="M337.298 18.674H334.482V25.538C334.482 28.816 332.48 34.14 325.858 36.67C326.43 37.198 327.354 38.32 327.706 38.914C332.876 36.692 335.296 32.424 335.868 30.18C336.484 32.358 339.124 36.758 344.382 38.914C344.778 38.144 345.614 37.022 346.208 36.45C339.366 33.92 337.298 28.86 337.298 25.516V18.674ZM342.38 22.7C341.698 24.636 340.488 27.144 339.432 28.794L341.72 29.762C342.82 28.266 344.14 25.912 345.262 23.778L342.38 22.7ZM328.938 22.722C328.63 25.208 327.904 27.386 326.298 28.75L328.674 30.224C330.566 28.662 331.204 26.044 331.578 23.294L328.938 22.722Z" fill="#333333"/>
<path d="M410.436 23.646L409.952 23.734H404.21V26.374H408.984C407.994 30.224 406.058 33.238 403.506 34.954C404.166 35.35 405.222 36.406 405.684 37.022C408.786 34.734 411.206 30.268 412.218 24.306L410.436 23.646ZM421.458 21.798C420.336 23.36 418.598 25.23 417.036 26.682C416.398 25.274 415.892 23.8 415.474 22.26V18.388H412.702V35.526C412.702 35.9 412.548 36.054 412.108 36.054C411.646 36.054 410.26 36.076 408.808 36.01C409.226 36.78 409.732 38.1 409.842 38.936C411.844 38.936 413.274 38.826 414.22 38.342C415.122 37.902 415.474 37.11 415.474 35.526V29.036C417.058 32.622 419.28 35.526 422.47 37.33C422.932 36.538 423.834 35.438 424.494 34.888C421.788 33.612 419.72 31.478 418.158 28.838C419.94 27.452 422.14 25.384 423.9 23.514L421.458 21.798Z" fill="#333333"/>
<path d="M501.658 26.066V23.47H493.408V18.366H490.614V23.47H482.408V26.066H489.47C487.666 29.52 484.674 32.842 481.396 34.602C482.012 35.152 482.914 36.164 483.354 36.846C486.17 35.086 488.7 32.292 490.614 29.102V38.914H493.408V28.992C495.344 32.16 497.874 34.976 500.646 36.758C501.064 36.032 501.966 34.998 502.604 34.47C499.37 32.71 496.29 29.432 494.464 26.066H501.658Z" fill="#333333"/>
<path d="M564.504 31.632V36.032H561.534L563.338 35.262C563.008 34.25 562.15 32.754 561.314 31.632H564.504ZM562.018 24.922C563.602 23.602 564.966 22.172 565.912 20.852C566.88 22.172 568.332 23.602 569.96 24.922H562.018ZM570.312 31.632C569.828 32.798 568.948 34.404 568.222 35.438L569.652 36.032H567.254V31.632H574.03V29.388H567.254V27.21H571.456V26.066C572.556 26.858 573.7 27.584 574.8 28.156C575.284 27.342 575.878 26.462 576.538 25.802C573.062 24.394 569.52 21.622 567.144 18.3H564.438C562.81 20.94 559.29 24.24 555.55 26.066C556.122 26.616 556.848 27.562 557.178 28.178C558.3 27.584 559.422 26.88 560.456 26.132V27.21H564.504V29.388H557.816V31.632H561.182L559.18 32.49C559.95 33.568 560.676 35.042 561.006 36.032H556.716V38.276H575.328V36.032H570.356C571.126 35.108 571.984 33.766 572.82 32.556L570.312 31.632Z" fill="#333333"/>
<path d="M641.386 35.416V27.76H648.558V25.164H641.386V18.41H638.57V25.164H631.508V27.76H638.57V35.416H630.078V37.99H650.01V35.416H641.386Z" fill="#333333"/>
<path d="M713.116 34.58V29.652H722.884V34.58H713.116ZM722.884 22.326V27.056H713.116V22.326H722.884ZM710.41 19.686V38.65H713.116V37.22H722.884V38.606H725.7V19.686H710.41ZM740 25.824C738.46 25.824 737.184 27.1 737.184 28.64C737.184 30.18 738.46 31.456 740 31.456C741.54 31.456 742.816 30.18 742.816 28.64C742.816 27.1 741.54 25.824 740 25.824ZM761.032 30.554C760.614 30.114 759.03 28.596 758.062 27.76C758.986 26.352 759.778 24.834 760.35 23.272L758.898 22.326L758.458 22.436H757.556V18.388H754.982V22.436H752.166V24.79H757.116C755.752 27.32 753.596 29.63 751.352 30.95C751.726 31.456 752.32 32.732 752.54 33.436C753.354 32.886 754.19 32.226 754.982 31.456V38.914H757.556V30.334C758.282 31.17 759.008 32.094 759.448 32.732L761.032 30.554ZM763.166 22.062H768.842V26.528H763.166V22.062ZM769.326 36.626C769.018 36.626 768.952 36.516 768.952 35.812V28.86H771.438V19.73H760.724V28.86H762.638C762.484 32.578 762 35.284 758.744 36.912C759.316 37.396 760.064 38.364 760.394 39.024C764.222 36.934 764.948 33.48 765.168 28.86H766.422V35.812C766.422 38.034 766.862 38.782 768.82 38.782H770.316C771.922 38.782 772.494 37.858 772.692 34.646C772.032 34.448 771.042 34.052 770.536 33.634C770.47 36.142 770.382 36.626 770.03 36.626H769.326Z" fill="#333333"/>
<path d="M36.1934 98.308C39.4934 98.308 41.6714 96.416 41.6714 93.952C41.6714 91.73 40.4394 90.41 38.9434 89.596V89.486C40.0214 88.716 41.0334 87.374 41.0334 85.768C41.0334 83.172 39.1854 81.434 36.3034 81.434C33.4874 81.434 31.3974 83.106 31.3974 85.724C31.3974 87.462 32.2994 88.694 33.5534 89.596V89.706C32.0354 90.498 30.7594 91.862 30.7594 93.952C30.7594 96.504 33.0914 98.308 36.1934 98.308ZM37.2274 88.694C35.5114 88.012 34.2574 87.264 34.2574 85.724C34.2574 84.426 35.1374 83.7 36.2374 83.7C37.6014 83.7 38.3934 84.646 38.3934 85.966C38.3934 86.934 38.0194 87.858 37.2274 88.694ZM36.2814 96.02C34.7634 96.02 33.5534 95.074 33.5534 93.6C33.5534 92.39 34.1694 91.29 35.0494 90.586C37.1614 91.444 38.6574 92.148 38.6574 93.842C38.6574 95.25 37.6674 96.02 36.2814 96.02ZM50.6445 89.948C51.8105 89.948 52.6685 89.046 52.6685 87.858C52.6685 86.648 51.8105 85.746 50.6445 85.746C49.5005 85.746 48.6425 86.648 48.6425 87.858C48.6425 89.046 49.5005 89.948 50.6445 89.948ZM50.6445 98.308C51.8105 98.308 52.6685 97.384 52.6685 96.196C52.6685 94.986 51.8105 94.084 50.6445 94.084C49.5005 94.084 48.6425 94.986 48.6425 96.196C48.6425 97.384 49.5005 98.308 50.6445 98.308ZM65.1248 98.308C68.4468 98.308 70.6248 95.404 70.6248 89.794C70.6248 84.184 68.4468 81.412 65.1248 81.412C61.8028 81.412 59.6028 84.162 59.6028 89.794C59.6028 95.404 61.8028 98.308 65.1248 98.308ZM65.1248 95.778C63.7168 95.778 62.6608 94.37 62.6608 89.794C62.6608 85.24 63.7168 83.92 65.1248 83.92C66.5328 83.92 67.5668 85.24 67.5668 89.794C67.5668 94.37 66.5328 95.778 65.1248 95.778ZM82.4798 98.308C85.8018 98.308 87.9798 95.404 87.9798 89.794C87.9798 84.184 85.8018 81.412 82.4798 81.412C79.1578 81.412 76.9578 84.162 76.9578 89.794C76.9578 95.404 79.1578 98.308 82.4798 98.308ZM82.4798 95.778C81.0718 95.778 80.0158 94.37 80.0158 89.794C80.0158 85.24 81.0718 83.92 82.4798 83.92C83.8878 83.92 84.9218 85.24 84.9218 89.794C84.9218 94.37 83.8878 95.778 82.4798 95.778ZM101.969 91.884C103.157 91.884 104.411 91.202 105.533 89.42L103.839 88.122C103.311 89.09 102.717 89.574 102.013 89.574C100.649 89.574 99.7249 87.638 97.7009 87.638C96.4909 87.638 95.2589 88.32 94.1149 90.124L95.8089 91.4C96.3369 90.432 96.9529 89.948 97.6349 89.948C99.0209 89.948 99.9449 91.884 101.969 91.884ZM111.646 98H122.558V95.272H119.038C118.268 95.272 117.19 95.36 116.376 95.448C119.346 92.544 121.788 89.376 121.788 86.428C121.788 83.392 119.742 81.412 116.662 81.412C114.44 81.412 112.988 82.27 111.492 83.876L113.252 85.636C114.088 84.734 115.056 83.964 116.244 83.964C117.806 83.964 118.686 84.954 118.686 86.604C118.686 89.112 116.068 92.17 111.646 96.13V98ZM134.545 98.308C137.867 98.308 140.045 95.404 140.045 89.794C140.045 84.184 137.867 81.412 134.545 81.412C131.223 81.412 129.023 84.162 129.023 89.794C129.023 95.404 131.223 98.308 134.545 98.308ZM134.545 95.778C133.137 95.778 132.081 94.37 132.081 89.794C132.081 85.24 133.137 83.92 134.545 83.92C135.953 83.92 136.987 85.24 136.987 89.794C136.987 94.37 135.953 95.778 134.545 95.778ZM148.974 89.948C150.14 89.948 150.998 89.046 150.998 87.858C150.998 86.648 150.14 85.746 148.974 85.746C147.83 85.746 146.972 86.648 146.972 87.858C146.972 89.046 147.83 89.948 148.974 89.948ZM148.974 98.308C150.14 98.308 150.998 97.384 150.998 96.196C150.998 94.986 150.14 94.084 148.974 94.084C147.83 94.084 146.972 94.986 146.972 96.196C146.972 97.384 147.83 98.308 148.974 98.308ZM163.454 98.308C166.776 98.308 168.954 95.404 168.954 89.794C168.954 84.184 166.776 81.412 163.454 81.412C160.132 81.412 157.932 84.162 157.932 89.794C157.932 95.404 160.132 98.308 163.454 98.308ZM163.454 95.778C162.046 95.778 160.99 94.37 160.99 89.794C160.99 85.24 162.046 83.92 163.454 83.92C164.862 83.92 165.896 85.24 165.896 89.794C165.896 94.37 164.862 95.778 163.454 95.778ZM180.81 98.308C184.132 98.308 186.31 95.404 186.31 89.794C186.31 84.184 184.132 81.412 180.81 81.412C177.488 81.412 175.288 84.162 175.288 89.794C175.288 95.404 177.488 98.308 180.81 98.308ZM180.81 95.778C179.402 95.778 178.346 94.37 178.346 89.794C178.346 85.24 179.402 83.92 180.81 83.92C182.218 83.92 183.252 85.24 183.252 89.794C183.252 94.37 182.218 95.778 180.81 95.778Z" fill="black"/>
<circle cx="336" cy="89" r="6" fill="#333333"/>
<circle cx="414" cy="89" r="6" fill="#333333"/>
<circle cx="492" cy="89" r="6" fill="#333333"/>
<circle cx="566" cy="89" r="6" fill="#333333"/>
<circle cx="640" cy="89" r="6" fill="#333333"/>
<circle cx="738" cy="89" r="6" fill="#333333"/>
<line x1="248" y1="87.5" x2="268" y2="87.5" stroke="#333333" stroke-width="3"/>
</svg>
