<svg width="410" height="317" viewBox="0 0 410 317" fill="none" xmlns="http://www.w3.org/2000/svg">
<rect x="2" y="2" width="406" height="313" rx="6" fill="#FFEECC" stroke="white" stroke-width="4"/>
<path d="M66.7064 31.148H62.8844C62.9884 31.772 63.0664 32.968 63.0664 33.54C63.0664 34.32 63.0404 35.074 63.0144 35.802H59.2964C58.3084 35.802 56.9564 35.724 55.8644 35.62V39.026C56.9824 38.922 58.4124 38.922 59.2964 38.922H62.7284C62.1564 42.874 60.8564 45.786 58.4384 48.178C57.3984 49.244 56.0984 50.128 55.0324 50.726L58.0484 53.17C62.7024 49.868 65.1724 45.786 66.1344 38.922H71.9844C71.9844 41.73 71.6464 46.93 70.8924 48.568C70.6064 49.192 70.2424 49.478 69.4104 49.478C68.3964 49.478 67.0444 49.348 65.7704 49.114L66.1864 52.598C67.4344 52.702 68.9944 52.806 70.4764 52.806C72.2704 52.806 73.2584 52.13 73.8304 50.804C74.9484 48.152 75.2604 40.898 75.3644 38.09C75.3644 37.804 75.4684 37.128 75.5464 36.712L73.2844 35.62C72.6604 35.724 71.9844 35.802 71.3344 35.802H66.4464C66.4984 35.048 66.5244 34.268 66.5504 33.462C66.5764 32.838 66.6284 31.746 66.7064 31.148ZM85.6864 41.886L87.3244 45.162C90.5224 44.226 93.8244 42.822 96.5024 41.418V49.738C96.5024 50.882 96.4244 52.52 96.3204 53.144H100.428C100.246 52.494 100.194 50.882 100.194 49.738V39.234C102.716 37.57 105.212 35.542 107.188 33.592L104.38 30.914C102.69 32.968 99.7264 35.568 97.0484 37.232C94.1624 39 90.3404 40.69 85.6864 41.886ZM118.55 33.566C118.602 34.294 118.602 35.36 118.602 36.088V48.802C118.602 50.05 118.524 52.312 118.524 52.442H122.112C122.112 52.364 122.112 51.766 122.086 51.038H134.618C134.618 51.792 134.592 52.39 134.592 52.442H138.18C138.18 52.338 138.128 49.842 138.128 48.828V36.088C138.128 35.308 138.128 34.346 138.18 33.566C137.244 33.618 136.256 33.618 135.606 33.618H121.306C120.604 33.618 119.616 33.592 118.55 33.566ZM122.086 36.92H134.644V47.71H122.086V36.92ZM167.378 32.942C167.378 32.11 168.054 31.434 168.886 31.434C169.692 31.434 170.368 32.11 170.368 32.942C170.368 33.748 169.692 34.424 168.886 34.424C168.054 34.424 167.378 33.748 167.378 32.942ZM165.766 32.942C165.766 33.124 165.792 33.28 165.818 33.436C165.272 33.514 164.7 33.54 164.336 33.54H152.298C151.44 33.54 149.958 33.436 149.204 33.332V36.998C149.854 36.946 151.102 36.894 152.298 36.894H164.388C164.05 39.13 163.062 42.068 161.346 44.226C159.24 46.878 156.302 49.14 151.154 50.336L153.988 53.456C158.616 51.948 162.1 49.374 164.44 46.254C166.624 43.368 167.742 39.338 168.34 36.79C168.418 36.556 168.47 36.296 168.548 36.01C168.652 36.036 168.782 36.036 168.886 36.036C170.576 36.036 171.98 34.632 171.98 32.942C171.98 31.226 170.576 29.822 168.886 29.822C167.17 29.822 165.766 31.226 165.766 32.942ZM183.472 32.058V35.412C184.226 35.36 185.344 35.334 186.176 35.334H196.134C197.07 35.334 198.292 35.36 198.994 35.412V32.058C198.266 32.162 196.992 32.188 196.186 32.188H186.176C185.292 32.188 184.2 32.162 183.472 32.058ZM201.178 39.598L198.864 38.168C198.5 38.324 197.798 38.428 196.966 38.428H184.096C183.29 38.428 182.172 38.35 181.08 38.272V41.652C182.172 41.548 183.472 41.522 184.096 41.522H196.654C196.186 42.978 195.38 44.59 193.976 46.02C192 48.048 188.88 49.764 184.98 50.57L187.554 53.508C190.882 52.572 194.21 50.804 196.836 47.892C198.786 45.734 199.904 43.212 200.684 40.69C200.788 40.404 200.996 39.936 201.178 39.598ZM223.772 31.72L219.976 30.472C219.742 31.356 219.196 32.552 218.806 33.202C217.506 35.438 215.244 38.792 210.694 41.574L213.606 43.732C216.154 41.99 218.416 39.702 220.158 37.44H227.464C227.048 39.39 225.54 42.51 223.772 44.538C221.51 47.112 218.624 49.374 213.294 50.96L216.362 53.716C221.25 51.792 224.396 49.4 226.866 46.384C229.206 43.472 230.688 40.014 231.39 37.7C231.598 37.05 231.962 36.322 232.248 35.828L229.596 34.19C228.998 34.372 228.14 34.502 227.334 34.502H222.108C222.134 34.45 222.16 34.424 222.186 34.372C222.498 33.8 223.174 32.63 223.772 31.72ZM245.3 32.058V35.412C246.106 35.36 247.198 35.308 248.108 35.308H258.534C259.444 35.308 260.458 35.36 261.342 35.412V32.058C260.458 32.188 259.418 32.24 258.534 32.24H248.082C247.224 32.24 246.158 32.188 245.3 32.058ZM242.284 38.714V42.12C243.012 42.068 244 42.016 244.78 42.016H251.93C251.826 44.2 251.384 46.15 250.318 47.762C249.278 49.27 247.458 50.778 245.612 51.48L248.654 53.69C250.968 52.52 252.97 50.492 253.88 48.698C254.816 46.878 255.388 44.694 255.544 42.016H261.81C262.538 42.016 263.526 42.042 264.176 42.094V38.714C263.5 38.818 262.356 38.87 261.81 38.87H244.78C243.974 38.87 243.064 38.792 242.284 38.714ZM272.508 44.59L274.042 47.658C276.304 46.956 279.216 45.76 281.504 44.616V51.48C281.504 52.39 281.426 53.768 281.374 54.288H285.222C285.066 53.768 285.04 52.39 285.04 51.48V42.562C287.354 41.028 289.642 39.182 290.864 37.83L288.29 35.308C286.964 36.998 284.338 39.338 281.816 40.872C279.762 42.12 275.888 43.862 272.508 44.59ZM314.056 36.556L310.962 37.57C311.612 38.922 312.756 42.068 313.068 43.342L316.188 42.25C315.824 41.054 314.55 37.674 314.056 36.556ZM323.65 38.454L320.01 37.284C319.698 40.534 318.45 43.992 316.682 46.202C314.524 48.906 310.91 50.882 308.05 51.636L310.78 54.418C313.822 53.274 317.072 51.09 319.49 47.97C321.258 45.682 322.35 42.978 323.026 40.352C323.182 39.832 323.338 39.286 323.65 38.454ZM308.024 37.934L304.904 39.052C305.528 40.196 306.828 43.654 307.27 45.058L310.442 43.862C309.922 42.406 308.674 39.26 308.024 37.934ZM347.024 31.72L343.228 30.472C342.994 31.356 342.448 32.552 342.058 33.202C340.758 35.438 338.496 38.792 333.946 41.574L336.858 43.732C339.406 41.99 341.668 39.702 343.41 37.44H350.716C350.3 39.39 348.792 42.51 347.024 44.538C344.762 47.112 341.876 49.374 336.546 50.96L339.614 53.716C344.502 51.792 347.648 49.4 350.118 46.384C352.458 43.472 353.94 40.014 354.642 37.7C354.85 37.05 355.214 36.322 355.5 35.828L352.848 34.19C352.25 34.372 351.392 34.502 350.586 34.502H345.36C345.386 34.45 345.412 34.424 345.438 34.372C345.75 33.8 346.426 32.63 347.024 31.72Z" fill="#333333"/>
<line y1="75" x2="410" y2="75" stroke="white" stroke-width="4"/>
<path d="M143.57 166.42C147.68 166.42 151.34 163.57 151.34 158.62C151.34 153.79 148.22 151.57 144.5 151.57C143.48 151.57 142.73 151.78 141.83 152.2L142.25 147.49H150.32V143.77H138.44L137.84 154.57L139.85 155.89C141.14 155.05 141.86 154.72 143.18 154.72C145.43 154.72 146.93 156.16 146.93 158.74C146.93 161.35 145.31 162.82 143 162.82C140.93 162.82 139.37 161.8 138.11 160.57L136.07 163.39C137.72 165.04 140.06 166.42 143.57 166.42ZM161.476 172.39C165.106 171.19 167.146 168.52 167.146 165.01C167.146 162.28 166.006 160.66 163.966 160.66C162.406 160.66 161.116 161.68 161.116 163.27C161.116 164.95 162.436 165.88 163.876 165.88C163.966 165.88 164.056 165.88 164.146 165.88C164.176 167.56 162.886 169.12 160.546 169.99L161.476 172.39ZM183.562 166.42C188.092 166.42 191.062 162.46 191.062 154.81C191.062 147.16 188.092 143.38 183.562 143.38C179.032 143.38 176.032 147.13 176.032 154.81C176.032 162.46 179.032 166.42 183.562 166.42ZM183.562 162.97C181.642 162.97 180.202 161.05 180.202 154.81C180.202 148.6 181.642 146.8 183.562 146.8C185.482 146.8 186.892 148.6 186.892 154.81C186.892 161.05 185.482 162.97 183.562 162.97ZM207.228 166.42C211.758 166.42 214.728 162.46 214.728 154.81C214.728 147.16 211.758 143.38 207.228 143.38C202.698 143.38 199.698 147.13 199.698 154.81C199.698 162.46 202.698 166.42 207.228 166.42ZM207.228 162.97C205.308 162.97 203.868 161.05 203.868 154.81C203.868 148.6 205.308 146.8 207.228 146.8C209.148 146.8 210.558 148.6 210.558 154.81C210.558 161.05 209.148 162.97 207.228 162.97ZM230.894 166.42C235.424 166.42 238.394 162.46 238.394 154.81C238.394 147.16 235.424 143.38 230.894 143.38C226.364 143.38 223.364 147.13 223.364 154.81C223.364 162.46 226.364 166.42 230.894 166.42ZM230.894 162.97C228.974 162.97 227.534 161.05 227.534 154.81C227.534 148.6 228.974 146.8 230.894 146.8C232.814 146.8 234.224 148.6 234.224 154.81C234.224 161.05 232.814 162.97 230.894 162.97ZM262.39 153.58V146.02H269.89V153.58H262.39ZM251.77 146.02H258.85V153.58H251.77V146.02ZM273.49 142.48H248.17V168.58H251.77V157.12H269.89V164.38C269.89 164.89 269.68 165.07 269.11 165.1C268.51 165.1 266.56 165.13 264.85 165.01C265.36 165.94 265.96 167.59 266.14 168.58C268.81 168.58 270.61 168.52 271.81 167.92C273.07 167.35 273.49 166.36 273.49 164.41V142.48Z" fill="#333333"/>
<path d="M144.53 256.14C146.45 256.14 147.71 257.37 147.71 259.98C147.71 262.71 146.33 264.09 144.68 264.09C142.82 264.09 141.32 262.53 140.9 258.48C141.92 256.8 143.33 256.14 144.53 256.14ZM144.77 267.42C148.55 267.42 151.73 264.54 151.73 259.98C151.73 255.24 149.09 253.02 145.37 253.02C143.93 253.02 142.01 253.92 140.81 255.42C140.99 249.84 143.09 247.92 145.64 247.92C146.93 247.92 148.28 248.64 149.06 249.54L151.4 246.9C150.05 245.52 148.1 244.38 145.37 244.38C140.9 244.38 136.79 247.92 136.79 256.2C136.79 264.03 140.54 267.42 144.77 267.42ZM161.476 273.39C165.106 272.19 167.146 269.52 167.146 266.01C167.146 263.28 166.006 261.66 163.966 261.66C162.406 261.66 161.116 262.68 161.116 264.27C161.116 265.95 162.436 266.88 163.876 266.88C163.966 266.88 164.056 266.88 164.146 266.88C164.176 268.56 162.886 270.12 160.546 270.99L161.476 273.39ZM183.562 267.42C188.092 267.42 191.062 263.46 191.062 255.81C191.062 248.16 188.092 244.38 183.562 244.38C179.032 244.38 176.032 248.13 176.032 255.81C176.032 263.46 179.032 267.42 183.562 267.42ZM183.562 263.97C181.642 263.97 180.202 262.05 180.202 255.81C180.202 249.6 181.642 247.8 183.562 247.8C185.482 247.8 186.892 249.6 186.892 255.81C186.892 262.05 185.482 263.97 183.562 263.97ZM207.228 267.42C211.758 267.42 214.728 263.46 214.728 255.81C214.728 248.16 211.758 244.38 207.228 244.38C202.698 244.38 199.698 248.13 199.698 255.81C199.698 263.46 202.698 267.42 207.228 267.42ZM207.228 263.97C205.308 263.97 203.868 262.05 203.868 255.81C203.868 249.6 205.308 247.8 207.228 247.8C209.148 247.8 210.558 249.6 210.558 255.81C210.558 262.05 209.148 263.97 207.228 263.97ZM230.894 267.42C235.424 267.42 238.394 263.46 238.394 255.81C238.394 248.16 235.424 244.38 230.894 244.38C226.364 244.38 223.364 248.13 223.364 255.81C223.364 263.46 226.364 267.42 230.894 267.42ZM230.894 263.97C228.974 263.97 227.534 262.05 227.534 255.81C227.534 249.6 228.974 247.8 230.894 247.8C232.814 247.8 234.224 249.6 234.224 255.81C234.224 262.05 232.814 263.97 230.894 263.97ZM262.39 254.58V247.02H269.89V254.58H262.39ZM251.77 247.02H258.85V254.58H251.77V247.02ZM273.49 243.48H248.17V269.58H251.77V258.12H269.89V265.38C269.89 265.89 269.68 266.07 269.11 266.1C268.51 266.1 266.56 266.13 264.85 266.01C265.36 266.94 265.96 268.59 266.14 269.58C268.81 269.58 270.61 269.52 271.81 268.92C273.07 268.35 273.49 267.36 273.49 265.41V243.48Z" fill="#333333"/>
<path d="M185.684 123H198.158V120.382H193.758V106.654H191.382C190.172 107.468 188.742 107.666 186.696 108.018V110.042H190.524V120.382H185.684V123ZM219.982 116.466H216.11V112.66H219.982V116.466ZM213.646 110.372V118.732H222.622V110.372H213.646ZM211.534 121.284V107.776H224.756V121.284H211.534ZM208.806 105.092V124.892H211.534V123.726H224.756V124.892H227.616V105.092H208.806Z" fill="#333333"/>
<path d="M198.116 216.586V222.064H193.21V215.42H199.964V207.434H197.214V212.868H193.21V205.586H190.526V212.868H186.742V207.434H184.146V215.42H190.526V222.064H185.928V216.586H183.266V225.914H185.928V224.638H198.116V225.892H200.844V216.586H198.116ZM226.496 217.686C226.012 218.302 225.264 219.072 224.516 219.732C224.164 219.094 223.856 218.368 223.592 217.62H228.674V215.332H220.16V214.166H226.716V212.34H220.16V211.24H226.716V209.414H220.16V208.314H227.552V206.114H217.652V215.332H216.09V216.014H211.096C211.184 215.31 211.272 214.606 211.36 213.88H215.76V206.466H208.632V208.864H213.384V211.46H209.248C209.05 213.814 208.632 216.806 208.258 218.72L210.7 218.984L210.788 218.346H213.428C213.208 221.536 212.944 222.878 212.614 223.296C212.394 223.516 212.174 223.56 211.844 223.56C211.426 223.56 210.612 223.538 209.71 223.472C210.128 224.132 210.414 225.166 210.458 225.914C211.492 225.936 212.526 225.936 213.098 225.848C213.802 225.76 214.33 225.54 214.814 224.99C215.452 224.22 215.782 222.086 216.09 217.004V217.62H217.718V222.922L215.98 223.12L216.376 225.562C218.356 225.276 220.886 224.924 223.284 224.528L223.174 222.262C222.184 222.394 221.194 222.526 220.226 222.636V217.62H221.326C222.338 221.514 224.076 224.462 227.332 225.936C227.684 225.232 228.454 224.176 229.026 223.648C227.618 223.142 226.496 222.328 225.594 221.294C226.54 220.612 227.64 219.732 228.652 218.852L226.496 217.686Z" fill="#333333"/>
<line x1="115" y1="177" x2="295" y2="177" stroke="#333333" stroke-width="2"/>
<line x1="115" y1="276" x2="295" y2="276" stroke="#333333" stroke-width="2"/>
</svg>
